<svg width="1055" height="845" viewBox="0 0 1055 845" fill="none" xmlns="http://www.w3.org/2000/svg">
<mask id="path-1-inside-1_1_45" fill="white">
<path d="M281.996 117.014C281.412 111.688 276.72 107.712 271.438 108.61C258.531 110.804 246.14 115.685 234.731 123.095C220.545 132.309 208.157 145.253 198.273 161.189C188.39 177.124 181.205 195.738 177.128 215.968C173.657 233.195 172.497 251.307 173.682 269.547C174.029 274.893 178.731 278.812 184.077 278.455L191.72 277.945C197.397 277.566 201.584 272.532 201.317 266.848C200.697 253.667 201.653 240.608 204.165 228.145C207.336 212.408 212.925 197.928 220.613 185.532C228.302 173.136 237.939 163.067 248.974 155.9C256.982 150.698 265.614 147.098 274.601 145.191C280.167 144.01 284.411 139.042 283.791 133.386L281.996 117.014Z"/>
</mask>
<path d="M281.996 117.014C281.412 111.688 276.72 107.712 271.438 108.61C258.531 110.804 246.14 115.685 234.731 123.095C220.545 132.309 208.157 145.253 198.273 161.189C188.39 177.124 181.205 195.738 177.128 215.968C173.657 233.195 172.497 251.307 173.682 269.547C174.029 274.893 178.731 278.812 184.077 278.455L191.72 277.945C197.397 277.566 201.584 272.532 201.317 266.848C200.697 253.667 201.653 240.608 204.165 228.145C207.336 212.408 212.925 197.928 220.613 185.532C228.302 173.136 237.939 163.067 248.974 155.9C256.982 150.698 265.614 147.098 274.601 145.191C280.167 144.01 284.411 139.042 283.791 133.386L281.996 117.014Z" stroke="#F3AB3E" stroke-width="80" mask="url(#path-1-inside-1_1_45)"/>
<mask id="path-2-inside-2_1_45" fill="white">
<path d="M179.84 268.891C182.71 264.888 188.331 263.444 191.432 267.271C193.761 270.146 195.461 273.778 196.492 278.111C198.329 285.835 198.004 295.637 195.535 306.956C193.066 318.275 188.502 330.89 182.102 344.081C176.327 355.984 169.16 368.145 160.94 379.998C159.401 382.218 156.457 382.938 154.043 381.723V381.723C151.035 380.208 150.094 376.367 151.98 373.576C157.723 365.08 162.759 356.413 166.882 347.915C171.86 337.654 175.411 327.841 177.332 319.036C179.252 310.231 179.505 302.606 178.075 296.597C177.723 295.114 177.269 293.737 176.717 292.469C174.268 286.839 172.232 279.506 175.809 274.516L179.84 268.891Z"/>
</mask>
<path d="M179.84 268.891C182.71 264.888 188.331 263.444 191.432 267.271C193.761 270.146 195.461 273.778 196.492 278.111C198.329 285.835 198.004 295.637 195.535 306.956C193.066 318.275 188.502 330.89 182.102 344.081C176.327 355.984 169.16 368.145 160.94 379.998C159.401 382.218 156.457 382.938 154.043 381.723V381.723C151.035 380.208 150.094 376.367 151.98 373.576C157.723 365.08 162.759 356.413 166.882 347.915C171.86 337.654 175.411 327.841 177.332 319.036C179.252 310.231 179.505 302.606 178.075 296.597C177.723 295.114 177.269 293.737 176.717 292.469C174.268 286.839 172.232 279.506 175.809 274.516L179.84 268.891Z" stroke="#F3AB3E" stroke-width="80" mask="url(#path-2-inside-2_1_45)"/>
<mask id="path-3-inside-3_1_45" fill="white">
<path d="M186.434 276.818C187.719 272.063 192.479 268.742 196.723 271.242C199.912 273.119 202.776 275.925 205.259 279.623C209.685 286.215 212.813 295.509 214.465 306.976C216.116 318.444 216.258 331.858 214.882 346.455C213.641 359.626 211.186 373.527 207.638 387.508C206.974 390.127 204.468 391.832 201.782 391.539V391.539C198.434 391.173 196.207 387.905 196.997 384.631C199.401 374.662 201.082 364.78 201.969 355.376C203.038 344.022 202.928 333.586 201.644 324.666C200.359 315.746 197.926 308.516 194.483 303.388C193.633 302.122 192.726 300.991 191.765 299.997C187.499 295.581 183.024 289.426 184.627 283.499L186.434 276.818Z"/>
</mask>
<path d="M186.434 276.818C187.719 272.063 192.479 268.742 196.723 271.242C199.912 273.119 202.776 275.925 205.259 279.623C209.685 286.215 212.813 295.509 214.465 306.976C216.116 318.444 216.258 331.858 214.882 346.455C213.641 359.626 211.186 373.527 207.638 387.508C206.974 390.127 204.468 391.832 201.782 391.539V391.539C198.434 391.173 196.207 387.905 196.997 384.631C199.401 374.662 201.082 364.78 201.969 355.376C203.038 344.022 202.928 333.586 201.644 324.666C200.359 315.746 197.926 308.516 194.483 303.388C193.633 302.122 192.726 300.991 191.765 299.997C187.499 295.581 183.024 289.426 184.627 283.499L186.434 276.818Z" stroke="#F3AB3E" stroke-width="80" mask="url(#path-3-inside-3_1_45)"/>
<circle cx="188" cy="274" r="20" fill="#F3AB3E"/>
<circle cx="188" cy="274" r="20" fill="#F3AB3E"/>
<path d="M368.244 42.0679C366.136 41.7284 363.975 42.0724 362.077 43.0495L144.707 154.944C136.125 159.362 138.164 172.173 147.694 173.708L389.063 212.581C391.17 212.921 393.331 212.577 395.23 211.6L612.599 99.7052C621.182 95.2873 619.143 82.4762 609.612 80.9413L368.244 42.0679Z" fill="#F3AB3E"/>
<path d="M399.251 233.298C408.351 234.744 410.819 246.684 403.038 251.619L267.69 337.471C261.785 341.217 253.957 337.899 252.541 331.051L229.594 220.051C228.178 213.203 234.05 207.053 240.956 208.15L399.251 233.298Z" fill="#F3AB3E"/>
<path d="M392.278 252.762C383.313 250.637 381.749 238.545 389.878 234.209L531.296 158.773C537.466 155.481 545.023 159.378 545.92 166.313L560.459 278.724C561.356 285.659 555.039 291.35 548.235 289.737L392.278 252.762Z" fill="#F3AB3E"/>
<path d="M567.138 178.396C565.973 169.001 577.304 163.397 584.063 170.025L604.215 189.787C609.131 194.607 607.818 202.838 601.647 205.89L584.968 214.139C578.797 217.191 571.459 213.238 570.611 206.406L567.138 178.396Z" fill="#F3AB3E"/>
<ellipse cx="406.401" cy="303.419" rx="156.125" ry="60.2203" transform="rotate(-8.89079 406.401 303.419)" fill="#F3AB3E"/>
<mask id="path-10-inside-4_1_45" fill="white">
<path d="M536.064 714.255C533.628 719.211 535.665 725.22 540.699 727.49C582.552 746.359 628.222 755.39 674.194 753.827C723.501 752.15 771.633 738.34 814.328 713.618C857.022 688.897 892.961 654.027 918.96 612.099C944.96 570.171 960.218 522.477 963.382 473.243C966.547 424.01 957.52 374.755 937.103 329.843C916.685 284.931 885.506 245.748 846.328 215.764C807.15 185.78 761.182 165.921 712.495 157.946C667.102 150.51 620.652 153.619 576.728 166.975C571.444 168.581 568.654 174.281 570.436 179.508L578.502 203.171C580.284 208.399 585.962 211.172 591.255 209.596C628.166 198.61 667.131 196.114 705.221 202.354C746.605 209.133 785.677 226.013 818.979 251.499C852.28 276.986 878.782 310.292 896.137 348.467C913.492 386.642 921.165 428.508 918.475 470.357C915.785 512.206 902.816 552.745 880.716 588.384C858.617 624.023 828.069 653.662 791.778 674.676C755.488 695.689 714.576 707.428 672.665 708.853C634.089 710.164 595.764 702.701 560.564 687.079C555.516 684.839 549.53 686.863 547.093 691.819L536.064 714.255Z"/>
</mask>
<path d="M536.064 714.255C533.628 719.211 535.665 725.22 540.699 727.49C582.552 746.359 628.222 755.39 674.194 753.827C723.501 752.15 771.633 738.34 814.328 713.618C857.022 688.897 892.961 654.027 918.96 612.099C944.96 570.171 960.218 522.477 963.382 473.243C966.547 424.01 957.52 374.755 937.103 329.843C916.685 284.931 885.506 245.748 846.328 215.764C807.15 185.78 761.182 165.921 712.495 157.946C667.102 150.51 620.652 153.619 576.728 166.975C571.444 168.581 568.654 174.281 570.436 179.508L578.502 203.171C580.284 208.399 585.962 211.172 591.255 209.596C628.166 198.61 667.131 196.114 705.221 202.354C746.605 209.133 785.677 226.013 818.979 251.499C852.28 276.986 878.782 310.292 896.137 348.467C913.492 386.642 921.165 428.508 918.475 470.357C915.785 512.206 902.816 552.745 880.716 588.384C858.617 624.023 828.069 653.662 791.778 674.676C755.488 695.689 714.576 707.428 672.665 708.853C634.089 710.164 595.764 702.701 560.564 687.079C555.516 684.839 549.53 686.863 547.093 691.819L536.064 714.255Z" stroke="#F3AB3E" stroke-width="80" mask="url(#path-10-inside-4_1_45)"/>
<circle cx="389" cy="587" r="180" stroke="#F3AB3E" stroke-width="40"/>
<path d="M429.585 374.471C439.053 374.483 443.205 386.422 435.787 392.306L413.675 409.845C408.281 414.124 400.277 411.799 398.015 405.296L391.904 387.722C389.642 381.218 394.476 374.428 401.361 374.437L429.585 374.471Z" fill="#F3AB3E"/>
<circle cx="494" cy="587" r="20" fill="#F3AB3E"/>
<circle cx="494" cy="587" r="20" fill="#F3AB3E"/>
<circle cx="359" cy="594" r="20" fill="#F3AB3E"/>
<circle cx="359" cy="594" r="20" fill="#F3AB3E"/>
<circle cx="784" cy="454" r="25" fill="#F3AB3E"/>
<circle cx="784" cy="454" r="25" fill="#F3AB3E"/>
<circle cx="596" cy="454" r="25" fill="#F3AB3E"/>
<circle cx="596" cy="454" r="25" fill="#F3AB3E"/>
<mask id="path-17-inside-5_1_45" fill="white">
<path d="M465.015 642.654C470.517 643.135 474.683 648.038 473.119 653.334C470.868 660.951 466.821 667.97 461.258 673.772C453.373 681.996 442.915 687.281 431.616 688.75C420.317 690.219 408.855 687.786 399.128 681.852C392.266 677.666 386.558 671.915 382.435 665.128C379.567 660.408 382.341 654.602 387.537 652.73L388.948 652.221C394.144 650.349 399.766 653.222 403.311 657.458C405.29 659.823 407.654 661.868 410.325 663.497C415.869 666.88 422.403 668.267 428.843 667.43C435.283 666.592 441.245 663.58 445.739 658.892C447.905 656.634 449.667 654.052 450.975 651.259C453.318 646.258 458.019 642.042 463.521 642.523L465.015 642.654Z"/>
</mask>
<path d="M465.015 642.654C470.517 643.135 474.683 648.038 473.119 653.334C470.868 660.951 466.821 667.97 461.258 673.772C453.373 681.996 442.915 687.281 431.616 688.75C420.317 690.219 408.855 687.786 399.128 681.852C392.266 677.666 386.558 671.915 382.435 665.128C379.567 660.408 382.341 654.602 387.537 652.73L388.948 652.221C394.144 650.349 399.766 653.222 403.311 657.458C405.29 659.823 407.654 661.868 410.325 663.497C415.869 666.88 422.403 668.267 428.843 667.43C435.283 666.592 441.245 663.58 445.739 658.892C447.905 656.634 449.667 654.052 450.975 651.259C453.318 646.258 458.019 642.042 463.521 642.523L465.015 642.654Z" fill="#D9D9D9" stroke="#F3AB3E" stroke-width="80" mask="url(#path-17-inside-5_1_45)"/>
<mask id="path-18-inside-6_1_45" fill="white">
<path d="M765.506 517.143C770.638 519.184 773.187 525.029 770.644 529.931C763.942 542.85 754.479 554.188 742.884 563.116C728.639 574.083 711.701 581.007 693.852 583.16C676.004 585.312 657.905 582.613 641.461 575.347C628.075 569.432 616.189 560.669 606.607 549.714C602.971 545.556 604.058 539.274 608.558 536.071L614.183 532.067C618.682 528.864 624.881 529.973 628.667 533.993C635.336 541.075 643.376 546.779 652.335 550.738C664.355 556.049 677.584 558.022 690.631 556.449C703.677 554.875 716.058 549.814 726.471 541.798C734.232 535.822 740.685 528.37 745.48 519.906C748.202 515.101 753.959 512.55 759.091 514.591L765.506 517.143Z"/>
</mask>
<path d="M765.506 517.143C770.638 519.184 773.187 525.029 770.644 529.931C763.942 542.85 754.479 554.188 742.884 563.116C728.639 574.083 711.701 581.007 693.852 583.16C676.004 585.312 657.905 582.613 641.461 575.347C628.075 569.432 616.189 560.669 606.607 549.714C602.971 545.556 604.058 539.274 608.558 536.071L614.183 532.067C618.682 528.864 624.881 529.973 628.667 533.993C635.336 541.075 643.376 546.779 652.335 550.738C664.355 556.049 677.584 558.022 690.631 556.449C703.677 554.875 716.058 549.814 726.471 541.798C734.232 535.822 740.685 528.37 745.48 519.906C748.202 515.101 753.959 512.55 759.091 514.591L765.506 517.143Z" fill="#D9D9D9" stroke="#F3AB3E" stroke-width="80" mask="url(#path-18-inside-6_1_45)"/>
</svg>
