<svg width="862" height="748" viewBox="0 0 862 748" fill="none" xmlns="http://www.w3.org/2000/svg">
<path fill-rule="evenodd" clip-rule="evenodd" d="M62.9197 206.766C63.4215 201.144 64.2209 195.597 65.316 190.162C65.7533 187.992 66.2366 185.846 66.765 183.725C70.0685 170.471 75.1366 158.236 81.7647 147.55C83.3531 144.989 85.0248 142.527 86.7747 140.17C93.4948 131.117 101.37 123.604 110.125 117.917C111.795 116.833 113.491 115.818 115.213 114.873C118.937 112.83 122.776 111.117 126.706 109.742C129.673 108.703 132.692 107.858 135.752 107.208C136.765 106.993 137.734 106.653 138.638 106.206C142.702 104.196 145.449 100.03 144.942 95.4034L143.147 79.0311C142.563 73.7055 137.871 69.7295 132.589 70.6275C131.11 70.879 129.637 71.1659 128.172 71.4878C123.049 72.6131 118.018 74.1669 113.109 76.1391C107.171 78.5243 101.412 81.5215 95.8826 85.1126C94.2319 86.1848 92.6055 87.3075 91.0046 88.4795C78.8475 97.3796 68.1582 109.125 59.4247 123.206C57.8692 125.714 56.3805 128.288 54.9603 130.925C47.3565 145.04 41.7143 160.939 38.2794 177.985C37.8462 180.135 37.4491 182.298 37.088 184.474C35.9411 191.384 35.158 198.418 34.7406 205.529C34.263 213.665 34.2641 221.902 34.7468 230.169C34.774 230.634 34.8027 231.099 34.8329 231.564C35.1799 236.911 39.8826 240.83 45.2282 240.473L52.8716 239.962C58.2455 239.603 62.2843 235.073 62.4736 229.77C62.4843 229.471 62.4827 229.169 62.4684 228.866C62.1189 221.432 62.2705 214.037 62.9197 206.766Z" fill="#EB8D34"/>
<path fill-rule="evenodd" clip-rule="evenodd" d="M29.6619 306.48C30.5511 304.54 31.3873 302.619 32.1692 300.721C35.0184 293.802 37.1458 287.183 38.483 281.053C39.6751 275.588 40.2247 270.577 40.1282 266.126C40.1226 265.867 40.1148 265.611 40.1049 265.356C40.01 262.931 39.7175 260.677 39.2268 258.615C38.874 257.132 38.4204 255.755 37.8687 254.486C36.6702 251.732 35.5707 248.569 35.1792 245.473C35.0959 244.813 35.0446 244.157 35.0314 243.508C34.9798 240.977 35.5063 238.562 36.9601 236.534L40.9918 230.909C43.8612 226.905 49.4824 225.461 52.5829 229.289C54.9121 232.164 56.6121 235.795 57.643 240.128C57.8846 241.144 58.0889 242.196 58.2559 243.282C58.3668 244.004 58.4612 244.742 58.5391 245.494C58.7585 247.611 58.8472 249.846 58.8057 252.191C58.7953 252.777 56.5297 253.93 56.5 254.624L56 254.814L57.1865 268C56.1346 272.823 54.2025 278.854 52.4098 284.091C49.9949 291.146 46.9262 298.528 43.253 306.099C42.2197 308.228 41.1417 310.366 40.0212 312.509C39.5725 313.368 39.117 314.227 38.6548 315.086C33.8651 323.993 28.355 332.964 22.2637 341.767C22.2064 341.85 22.1491 341.932 22.0917 342.015C20.5519 344.236 17.6081 344.956 15.1946 343.74C12.2374 342.251 11.2778 338.514 13.0378 335.737C13.0682 335.689 13.0995 335.641 13.1316 335.594C18.8745 327.098 23.9099 318.431 28.033 309.933C28.5942 308.776 29.1373 307.625 29.6619 306.48Z" fill="#EB8D34"/>
<path fill-rule="evenodd" clip-rule="evenodd" d="M63.4367 313.589C63.5903 311.461 63.7008 309.369 63.7683 307.317C64.0144 299.839 63.6892 292.894 62.795 286.684C61.9977 281.147 60.7578 276.261 59.1085 272.125C59.0128 271.885 58.9158 271.648 58.8173 271.413C57.879 269.174 57.1865 268 57.1865 268L56 254.814C56 254.814 48.6915 257.276 47.2405 254.513C46.9315 253.924 46.6536 253.327 46.4139 252.724C45.4794 250.372 45.1268 247.925 45.7783 245.516L47.5848 238.836C48.8706 234.081 53.6303 230.76 57.8747 233.259C61.0633 235.137 63.9274 237.943 66.4103 241.64C66.9924 242.507 67.5521 243.421 68.089 244.38C68.4457 245.018 68.7923 245.675 69.1287 246.352C70.0755 248.258 70.9414 250.321 71.7237 252.532C71.9192 253.085 72.1095 253.647 72.2945 254.218C73.4242 257.704 74.3578 261.532 75.0859 265.674C75.2767 266.759 75.4534 267.866 75.6159 268.994C76.3193 273.88 76.7489 279.119 76.9038 284.652C77.1125 292.106 76.8229 300.095 76.0335 308.473C75.8114 310.829 75.5505 313.21 75.2514 315.609C75.1316 316.57 75.0058 317.534 74.8738 318.501C73.5064 328.521 71.4867 338.854 68.8639 349.233C68.8393 349.33 68.8145 349.428 68.7898 349.525C68.1251 352.145 65.6198 353.85 62.9335 353.557C59.642 353.197 57.4346 350.033 58.1106 346.815C58.1223 346.76 58.1348 346.704 58.1482 346.648C60.5524 336.679 62.2337 326.797 63.1198 317.394C63.2405 316.114 63.3461 314.845 63.4367 313.589Z" fill="#EB8D34"/>
<path d="M69.1513 236.018C69.1513 247.063 60.197 256.018 49.1513 256.018C38.1056 256.018 29.1513 247.063 29.1513 236.018C29.1513 224.972 38.1056 216.018 49.1513 216.018C60.197 216.018 69.1513 224.972 69.1513 236.018Z" fill="#EB8D34"/>
<path d="M69.1513 236.018C69.1513 247.063 60.197 256.018 49.1513 256.018C38.1056 256.018 29.1513 247.063 29.1513 236.018C29.1513 224.972 38.1056 216.018 49.1513 216.018C60.197 216.018 69.1513 224.972 69.1513 236.018Z" fill="#EB8D34"/>
<path d="M229.395 1.08543C227.287 0.745968 225.126 1.08996 223.228 2.06706L5.85835 113.962C-2.72416 118.38 -0.684918 131.191 8.84515 132.725L250.214 171.599C252.322 171.938 254.483 171.594 256.381 170.617L473.751 58.7227C482.333 54.3048 480.294 41.4937 470.764 39.9588L229.395 1.08543Z" fill="#EB8D34"/>
<path d="M258.314 195.349L253.784 197.322L248.213 199.804L242.8 202.259L237.5 204.701L232.584 207L227.683 209.323L222.744 211.698L218 214.01L213 216.483L208.5 218.742L203.5 221.29L198.5 223.881L193.5 226.518L188.5 229.206L183.5 231.948L179 234.468L173.71 237.5L169 240.27L163.666 243.5L158.87 246.5L153.5 249.988L148.5 253.384L144 256.591L139.474 260L137.5 261.5L135.5 263.19L133.5 264.885L132 266.204L131.12 267L130.262 267.794L129.36 268.648L128.5 269.485L127.792 270.191L127 271.003L126.27 271.772L125.6 272.5L124.711 273.5L123.861 274.5L123.051 275.5L122.283 276.5L121.5 277.584L120.88 278.5L120.217 279.553L119.669 280.5L119.14 281.5L118.6 282.654L118.105 283.897L117.746 285L117.593 285.569L117.453 286.179L117.347 286.752L117.266 287.308L117.211 287.844L117.19 288.142L117.175 288.5L117.17 288.772L117.173 289.1L117.185 289.427L117.211 289.755L118.105 294L94.7457 183.069C93.3299 176.22 99.2009 170.071 106.108 171.168L258.314 195.349Z" fill="#EB8D34"/>
<path d="M258.314 195.349L396.447 121.79C402.618 118.499 410.174 122.395 411.071 129.331L425.801 242.307L425.717 241.838L425.667 241.605L425.597 241.315L425.512 241L425.427 240.719L425.299 240.337L425.147 239.931L425 239.575L424.842 239.224L424.666 238.863L424.553 238.644L424.387 238.339L424.19 238L424 237.689L423.759 237.317L423.541 237L423.29 236.651L423.022 236.299L422.785 236L422.5 235.657L422.255 235.373L421.974 235.06L421.663 234.726L421.374 234.427L421.08 234.134L420.787 233.85L420.5 233.581L420.203 233.31L419.854 233L419.546 232.735L419.266 232.5L418.964 232.252L418.65 232L418.331 231.75L418 231.5L417.677 231.255L417.329 231L417.039 230.792L416.762 230.596L416.5 230.414L416.267 230.254L416.092 230.136L415.89 230L415.63 229.828L415.327 229.63L415.125 229.5L414.892 229.351L414.593 229.164L414.329 229L413.888 228.73L413.503 228.5L412.357 227.836L411 227.088L409.882 226.5L408.5 225.803L407.258 225.203L406 224.618L404.807 224.081L403.5 223.513L402.281 223L401.058 222.5L399.799 222L398.5 221.498L397.173 221L396 220.57L393.5 219.686L390.5 218.677L388 217.875L385.5 217.103L383 216.36L379.991 215.5L377 214.679L374 213.886L371 213.122L365 211.67L359.5 210.419L353 209.027L347.5 207.914L342 206.855L336.5 205.844L331 204.878L325.5 203.954L320 203.068L314.5 202.219L309 201.404L303 200.552L297.5 199.804L292 199.086L286.5 198.397L281 197.738L276 197.163L269.5 196.453L263.5 195.839L258.314 195.349Z" fill="#EB8D34"/>
<path d="M425.801 242.307C430.941 275.166 366.049 312.607 280.859 325.933C195.67 339.26 122.443 323.425 117.303 290.566C112.162 257.707 258.314 195.349 258.314 195.349C258.314 195.349 420.661 209.448 425.801 242.307Z" fill="#EB8D34"/>
<path d="M442 143C442.5 137 447.109 135.756 447.109 135.756V141.196V144.865V147.382L454.581 164.851L467.781 170.29L468.388 170.058L469.145 169.772L470.953 169.099L456.5 174.5C447.109 179 443.514 176.954 442.867 169.751L442 143Z" fill="#EB8D34"/>
<path fill-rule="evenodd" clip-rule="evenodd" d="M437.851 687.508C432.816 685.238 432 683.869 432 683.869L438.585 676.5L443 671.121L449.815 662C453 657.336 455.793 653 455.793 653C492.641 669.392 532.104 676.527 572.486 674.771C616.202 672.871 658.739 660.01 696.184 637.372C733.63 614.733 764.783 583.043 786.779 545.216C808.775 507.39 820.907 464.64 822.061 420.898C823.214 377.156 813.351 333.826 793.38 294.892C773.408 255.958 743.969 222.671 707.768 198.09C671.567 173.51 629.768 158.425 586.213 154.224C545.98 150.342 505.442 155.863 467.781 170.29L454.581 164.851L447.109 147.382V135.756C490.79 118.772 543.216 110.895 589.958 115.404C640.021 120.233 688.066 137.572 729.676 165.825C771.286 194.079 805.125 232.34 828.081 277.092C851.037 321.843 862.373 371.647 861.047 421.926C859.721 472.204 845.776 521.342 820.493 564.821C795.211 608.3 759.403 644.725 716.362 670.746C673.321 696.768 624.428 711.55 574.18 713.734C527.265 715.774 480.575 706.77 437.851 687.508Z" fill="#EB8D34"/>
<path fill-rule="evenodd" clip-rule="evenodd" d="M286.151 717.018C380.04 717.018 456.151 640.906 456.151 547.018C456.151 453.129 380.04 377.018 286.151 377.018C192.263 377.018 116.151 453.129 116.151 547.018C116.151 640.906 192.263 717.018 286.151 717.018ZM286.151 747.018C396.608 747.018 486.151 657.474 486.151 547.018C486.151 436.561 396.608 347.018 286.151 347.018C175.694 347.018 86.1513 436.561 86.1513 547.018C86.1513 657.474 175.694 747.018 286.151 747.018Z" fill="#EB8D34"/>
<path d="M326.736 332C336.5 330.511 334.5 344.5 333 352.535L330.5 351.952L328.203 351.446L326.736 351.138L325.5 350.887L323 350.405L321 350.043L319.244 349.743L317.5 349.46L315.5 349.156L313.701 348.899L312 348.673L310 348.425L308 348.197L306 347.99L304.307 347.831L302.5 347.676L300.5 347.524L298.512 347.393L296.5 347.281L294.782 347.2L293 347.133L291 347.075L289 347.037C290 339 291 339 298.512 337.5L326.736 332Z" fill="#EB8D34"/>
<path d="M411.151 547.018C411.151 558.063 402.197 567.018 391.151 567.018C380.106 567.018 371.151 558.063 371.151 547.018C371.151 535.972 380.106 527.018 391.151 527.018C402.197 527.018 411.151 535.972 411.151 547.018Z" fill="#EB8D34"/>
<path d="M411.151 547.018C411.151 558.063 402.197 567.018 391.151 567.018C380.106 567.018 371.151 558.063 371.151 547.018C371.151 535.972 380.106 527.018 391.151 527.018C402.197 527.018 411.151 535.972 411.151 547.018Z" fill="#EB8D34"/>
<path d="M276.151 554.018C276.151 565.063 267.197 574.018 256.151 574.018C245.106 574.018 236.151 565.063 236.151 554.018C236.151 542.972 245.106 534.018 256.151 534.018C267.197 534.018 276.151 542.972 276.151 554.018Z" fill="#EB8D34"/>
<path d="M276.151 554.018C276.151 565.063 267.197 574.018 256.151 574.018C245.106 574.018 236.151 565.063 236.151 554.018C236.151 542.972 245.106 534.018 256.151 534.018C267.197 534.018 276.151 542.972 276.151 554.018Z" fill="#EB8D34"/>
<path d="M706.151 414.018C706.151 427.825 694.958 439.018 681.151 439.018C667.344 439.018 656.151 427.825 656.151 414.018C656.151 400.21 667.344 389.018 681.151 389.018C694.958 389.018 706.151 400.21 706.151 414.018Z" fill="#EB8D34"/>
<path d="M706.151 414.018C706.151 427.825 694.958 439.018 681.151 439.018C667.344 439.018 656.151 427.825 656.151 414.018C656.151 400.21 667.344 389.018 681.151 389.018C694.958 389.018 706.151 400.21 706.151 414.018Z" fill="#EB8D34"/>
<path d="M518.151 414.018C518.151 427.825 506.958 439.018 493.151 439.018C479.344 439.018 468.151 427.825 468.151 414.018C468.151 400.21 479.344 389.018 493.151 389.018C506.958 389.018 518.151 400.21 518.151 414.018Z" fill="#EB8D34"/>
<path d="M518.151 414.018C518.151 427.825 506.958 439.018 493.151 439.018C479.344 439.018 468.151 427.825 468.151 414.018C468.151 400.21 479.344 389.018 493.151 389.018C506.958 389.018 518.151 400.21 518.151 414.018Z" fill="#EB8D34"/>
<path d="M365.617 605.647C371.043 606.677 374.697 611.973 372.609 617.086C369.607 624.438 364.876 631.017 358.76 636.232C350.09 643.624 339.155 647.834 327.766 648.164C316.377 648.494 305.216 644.924 296.133 638.045C289.725 633.192 284.622 626.899 281.2 619.732C278.82 614.749 282.161 609.25 287.519 607.908L288.974 607.543C294.331 606.201 299.637 609.624 302.739 614.193C304.472 616.745 306.619 619.016 309.113 620.905C314.29 624.826 320.652 626.861 327.144 626.673C333.636 626.485 339.869 624.086 344.811 619.872C347.191 617.842 349.203 615.45 350.785 612.802C353.618 608.061 358.717 604.337 364.143 605.367L365.617 605.647Z" fill="#EB8D34"/>
<path fill-rule="evenodd" clip-rule="evenodd" d="M335.2 625.266C332.614 626.114 329.902 626.593 327.144 626.673C324.385 626.753 321.65 626.431 319.019 625.734C315.459 624.791 312.09 623.16 309.113 620.905C306.619 619.016 304.472 616.745 302.739 614.193C301.909 612.97 300.922 611.83 299.817 610.841C296.794 608.133 292.897 606.56 288.974 607.543L287.519 607.908C282.161 609.25 278.82 614.749 281.2 619.732C282.285 622.005 283.54 624.19 284.951 626.269C287.68 630.288 290.995 633.912 294.811 637.008C295.245 637.361 295.686 637.706 296.133 638.045C296.33 638.194 296.529 638.342 296.728 638.489C299.377 640.433 302.195 642.101 305.138 643.477C312.168 646.765 319.912 648.391 327.766 648.164C335.619 647.937 343.257 645.864 350.084 642.176C352.943 640.632 355.66 638.804 358.192 636.709C358.382 636.552 358.572 636.392 358.76 636.232C359.187 635.868 359.607 635.497 360.02 635.12C363.65 631.808 366.751 627.999 369.242 623.829C370.531 621.671 371.657 619.418 372.609 617.086C374.697 611.973 371.043 606.677 365.617 605.647L364.143 605.367C360.169 604.612 356.37 606.408 353.508 609.286C352.463 610.338 351.543 611.533 350.785 612.802C349.203 615.45 347.191 617.842 344.811 619.872C341.969 622.295 338.7 624.118 335.2 625.266Z" fill="#EB8D34"/>
<path d="M662.658 477.161C667.789 479.202 670.339 485.046 667.795 489.949C661.093 502.868 651.631 514.206 640.035 523.133C625.79 534.101 608.852 541.025 591.003 543.177C573.155 545.33 555.056 542.631 538.613 535.365C525.227 529.45 513.34 520.686 503.759 509.731C500.123 505.574 501.21 499.291 505.709 496.088L511.334 492.084C515.833 488.882 522.032 489.99 525.818 494.011C532.488 501.092 540.528 506.797 549.487 510.756C561.507 516.067 574.736 518.04 587.782 516.466C600.829 514.893 613.21 509.832 623.622 501.815C631.383 495.84 637.836 488.388 642.631 479.923C645.353 475.118 651.11 472.568 656.242 474.609L662.658 477.161Z" fill="#EB8D34"/>
<path fill-rule="evenodd" clip-rule="evenodd" d="M630.403 495.895C628.273 497.999 626.009 499.977 623.622 501.815C613.21 509.832 600.829 514.893 587.782 516.466C574.736 518.04 561.507 516.067 549.487 510.756C546.731 509.538 544.062 508.155 541.493 506.618C535.711 503.157 530.436 498.914 525.818 494.011C525.188 493.341 524.49 492.752 523.745 492.251C520.014 489.741 515.084 489.415 511.334 492.084L505.709 496.088C501.21 499.291 500.123 505.574 503.759 509.731C504.567 510.655 505.392 511.564 506.232 512.457C512.187 518.779 518.941 524.3 526.321 528.878C530.249 531.314 534.355 533.483 538.613 535.365C555.056 542.631 573.155 545.33 591.003 543.177C608.852 541.025 625.79 534.101 640.035 523.133C643.723 520.294 647.195 517.211 650.432 513.91C656.512 507.709 661.76 500.741 666.041 493.184C666.645 492.117 667.23 491.039 667.795 489.949C670.339 485.046 667.789 479.202 662.658 477.161L656.242 474.609C651.965 472.908 647.253 474.396 644.227 477.721C643.622 478.385 643.084 479.123 642.631 479.923C639.311 485.784 635.196 491.159 630.403 495.895Z" fill="#EB8D34"/>
</svg>
